<?xml version="1.0" encoding="utf-8"?>
<!-- Generator: Adobe Illustrator 25.3.1, SVG Export Plug-In . SVG Version: 6.00 Build 0)  -->
<svg version="1.1" id="Layer_1" xmlns="http://www.w3.org/2000/svg" xmlns:xlink="http://www.w3.org/1999/xlink" x="0px" y="0px"
	 width="125px" height="39px" viewBox="0 0 125 39" style="enable-background:new 0 0 125 39;" xml:space="preserve">
<style type="text/css">
	.st0{fill:#7FCFE6;}
</style>
<g>
	<path class="st0" d="M20.96,13.61l-2.62,8.82v5H15v-5l-2.53-8.82h3.3c0.52,2.7,0.81,4.52,0.87,5.45c0.2-1.48,0.53-3.29,1-5.45
		H20.96z"/>
	<path class="st0" d="M33.29,21.71c0,1.39-0.03,2.37-0.1,2.95c-0.07,0.58-0.27,1.11-0.62,1.58c-0.34,0.48-0.81,0.85-1.4,1.1
		s-1.27,0.38-2.05,0.38c-0.74,0-1.41-0.12-1.99-0.36s-1.06-0.61-1.42-1.09c-0.36-0.48-0.57-1.01-0.64-1.58s-0.1-1.57-0.1-2.99v-2.37
		c0-1.39,0.03-2.37,0.1-2.95c0.06-0.58,0.27-1.11,0.61-1.58c0.34-0.48,0.81-0.85,1.4-1.1c0.59-0.26,1.27-0.38,2.05-0.38
		c0.74,0,1.4,0.12,1.99,0.36c0.59,0.24,1.06,0.6,1.42,1.09c0.36,0.48,0.57,1.01,0.64,1.58s0.1,1.57,0.1,2.99V21.71z M29.69,17.17
		c0-0.64-0.04-1.05-0.11-1.23c-0.07-0.18-0.22-0.27-0.44-0.27c-0.19,0-0.33,0.07-0.43,0.22s-0.15,0.57-0.15,1.29v6.46
		c0,0.8,0.03,1.3,0.1,1.49c0.07,0.19,0.22,0.28,0.46,0.28c0.24,0,0.4-0.11,0.47-0.32s0.1-0.73,0.1-1.55V17.17z"/>
	<path class="st0" d="M46.3,13.61v9.24c0,1.05-0.03,1.78-0.1,2.21c-0.07,0.42-0.27,0.86-0.61,1.31c-0.34,0.45-0.78,0.79-1.33,1.02
		c-0.55,0.23-1.2,0.35-1.94,0.35c-0.83,0-1.55-0.14-2.19-0.41c-0.63-0.27-1.1-0.63-1.42-1.07s-0.5-0.9-0.56-1.39
		c-0.06-0.49-0.09-1.51-0.09-3.07v-8.18h3.6v10.37c0,0.6,0.03,0.99,0.1,1.16s0.2,0.25,0.4,0.25c0.23,0,0.37-0.09,0.44-0.28
		c0.07-0.18,0.1-0.62,0.1-1.31V13.61H46.3z"/>
	<path class="st0" d="M51.19,13.61h2.55c1.7,0,2.85,0.07,3.45,0.2c0.6,0.13,1.09,0.47,1.47,1c0.38,0.54,0.57,1.4,0.57,2.58
		c0,1.08-0.13,1.8-0.4,2.17s-0.79,0.59-1.58,0.67c0.71,0.18,1.19,0.41,1.43,0.71c0.25,0.3,0.4,0.57,0.46,0.82
		c0.06,0.25,0.09,0.93,0.09,2.05v3.65h-3.34v-4.59c0-0.74-0.06-1.2-0.18-1.38s-0.42-0.26-0.92-0.26v6.23h-3.6V13.61z M54.78,15.98
		v3.07c0.4,0,0.69-0.06,0.85-0.17c0.16-0.11,0.24-0.47,0.24-1.08v-0.76c0-0.44-0.08-0.73-0.23-0.86
		C55.49,16.05,55.2,15.98,54.78,15.98z"/>
	<path class="st0" d="M67.7,13.61v11.06h2.19v2.77h-5.78V13.61H67.7z"/>
	<path class="st0" d="M82.21,21.71c0,1.39-0.03,2.37-0.1,2.95c-0.07,0.58-0.27,1.11-0.62,1.58c-0.34,0.48-0.81,0.85-1.4,1.1
		s-1.27,0.38-2.05,0.38c-0.74,0-1.41-0.12-1.99-0.36s-1.06-0.61-1.42-1.09c-0.36-0.48-0.57-1.01-0.64-1.58s-0.1-1.57-0.1-2.99v-2.37
		c0-1.39,0.03-2.37,0.1-2.95c0.06-0.58,0.27-1.11,0.61-1.58c0.34-0.48,0.81-0.85,1.4-1.1c0.59-0.26,1.27-0.38,2.05-0.38
		c0.74,0,1.4,0.12,1.99,0.36c0.59,0.24,1.06,0.6,1.42,1.09c0.36,0.48,0.57,1.01,0.64,1.58s0.1,1.57,0.1,2.99V21.71z M78.61,17.17
		c0-0.64-0.04-1.05-0.11-1.23c-0.07-0.18-0.22-0.27-0.44-0.27c-0.19,0-0.33,0.07-0.43,0.22s-0.15,0.57-0.15,1.29v6.46
		c0,0.8,0.03,1.3,0.1,1.49c0.07,0.19,0.22,0.28,0.46,0.28c0.24,0,0.4-0.11,0.47-0.32s0.1-0.73,0.1-1.55V17.17z"/>
	<path class="st0" d="M95.3,18.7h-3.6v-1.26c0-0.79-0.03-1.29-0.1-1.49s-0.23-0.3-0.49-0.3c-0.22,0-0.37,0.09-0.45,0.26
		c-0.08,0.17-0.12,0.61-0.12,1.32v6.64c0,0.62,0.04,1.03,0.12,1.23c0.08,0.2,0.24,0.29,0.48,0.29c0.26,0,0.44-0.11,0.53-0.33
		c0.09-0.22,0.14-0.65,0.14-1.3v-1.64h-0.73v-2.1h4.21v7.42h-2.26l-0.33-0.99c-0.25,0.43-0.55,0.75-0.93,0.96
		c-0.37,0.21-0.81,0.32-1.32,0.32c-0.6,0-1.17-0.15-1.7-0.44c-0.53-0.29-0.93-0.66-1.2-1.09c-0.27-0.43-0.44-0.89-0.51-1.36
		s-0.1-1.19-0.1-2.14v-4.11c0-1.32,0.07-2.28,0.21-2.88c0.14-0.6,0.55-1.15,1.23-1.64c0.67-0.5,1.55-0.75,2.62-0.75
		c1.05,0,1.93,0.22,2.62,0.65c0.69,0.43,1.15,0.95,1.36,1.54c0.21,0.59,0.32,1.46,0.32,2.59V18.7z"/>
	<path class="st0" d="M108.41,21.71c0,1.39-0.03,2.37-0.1,2.95c-0.07,0.58-0.27,1.11-0.62,1.58c-0.34,0.48-0.81,0.85-1.4,1.1
		s-1.27,0.38-2.05,0.38c-0.74,0-1.41-0.12-1.99-0.36s-1.06-0.61-1.42-1.09c-0.36-0.48-0.57-1.01-0.64-1.58s-0.1-1.57-0.1-2.99v-2.37
		c0-1.39,0.03-2.37,0.1-2.95c0.06-0.58,0.27-1.11,0.61-1.58c0.34-0.48,0.81-0.85,1.4-1.1c0.59-0.26,1.27-0.38,2.05-0.38
		c0.74,0,1.4,0.12,1.99,0.36c0.59,0.24,1.06,0.6,1.42,1.09c0.36,0.48,0.57,1.01,0.64,1.58s0.1,1.57,0.1,2.99V21.71z M104.81,17.17
		c0-0.64-0.04-1.05-0.11-1.23c-0.07-0.18-0.22-0.27-0.44-0.27c-0.19,0-0.33,0.07-0.43,0.22s-0.15,0.57-0.15,1.29v6.46
		c0,0.8,0.03,1.3,0.1,1.49c0.07,0.19,0.22,0.28,0.46,0.28c0.24,0,0.4-0.11,0.47-0.32s0.1-0.73,0.1-1.55V17.17z"/>
</g>
</svg>
